<?xml version="1.0" encoding="UTF-8" standalone="no"?>
<!-- Created with Inkscape (http://www.inkscape.org/) -->

<svg
   xmlns:dc="http://purl.org/dc/elements/1.1/"
   xmlns:cc="http://creativecommons.org/ns#"
   xmlns:rdf="http://www.w3.org/1999/02/22-rdf-syntax-ns#"
   xmlns:svg="http://www.w3.org/2000/svg"
   xmlns="http://www.w3.org/2000/svg"
   xmlns:sodipodi="http://sodipodi.sourceforge.net/DTD/sodipodi-0.dtd"
   xmlns:inkscape="http://www.inkscape.org/namespaces/inkscape"
   width="387.01727"
   height="152.73"
   id="svg3137"
   version="1.1"
   inkscape:version="0.48.4 r9939"
   sodipodi:docname="ist.svg">
  <defs
     id="defs3139" />
  <sodipodi:namedview
     id="base"
     pagecolor="#ffffff"
     bordercolor="#666666"
     borderopacity="1.0"
     inkscape:pageopacity="0.0"
     inkscape:pageshadow="2"
     inkscape:zoom="1.4"
     inkscape:cx="228.79031"
     inkscape:cy="4.767695"
     inkscape:document-units="px"
     inkscape:current-layer="layer1"
     showgrid="false"
     fit-margin-top="3.3"
     fit-margin-left="3.4"
     fit-margin-right="3.4"
     fit-margin-bottom="2.4"
     inkscape:window-width="1855"
     inkscape:window-height="959"
     inkscape:window-x="65"
     inkscape:window-y="24"
     inkscape:window-maximized="1" />
  <metadata
     id="metadata3142">
    <rdf:RDF>
      <cc:Work
         rdf:about="">
        <dc:format>image/svg+xml</dc:format>
        <dc:type
           rdf:resource="http://purl.org/dc/dcmitype/StillImage" />
        <dc:title></dc:title>
      </cc:Work>
    </rdf:RDF>
  </metadata>
  <g
     inkscape:label="Camada 1"
     inkscape:groupmode="layer"
     id="layer1"
     transform="translate(-160.77709,-25.547182)">
    <g
       id="g12"
       transform="matrix(1.25,0,0,-1.25,325.33834,49.791812)">
      <path
         inkscape:connector-curvature="0"
         d="m 0,0 -9.701,0 0,5.701 25.973,0 0,-5.701 -9.701,0 0,-28.512 -6.571,0 L 0,0 z"
         style="fill:#4c565c;fill-opacity:1;fill-rule:nonzero;stroke:none"
         id="path14" />
    </g>
    <g
       id="g24"
       transform="matrix(1.25,0,0,-1.25,360.28159,35.536432)">
      <path
         inkscape:connector-curvature="0"
         d="M 0,0 C 2.45,1.49 4.851,2.979 6.938,4.571 L 9.389,0.77 C 7.042,-0.925 5.112,-2.055 2.296,-3.494 L 0,0 z m -7.249,-5.704 21.28,0 0,-5.7 -14.709,0 0,-8.272 13.561,0 0,-5.703 -13.561,0 0,-8.834 14.709,0 0,-5.703 -21.28,0 0,34.212 z"
         style="fill:#4c565c;fill-opacity:1;fill-rule:nonzero;stroke:none"
         id="path26" />
    </g>
    <g
       id="g28"
       transform="matrix(1.25,0,0,-1.25,384.33922,54.415182)">
      <path
         inkscape:connector-curvature="0"
         d="m 0,0 c 0,6.268 3.703,9.915 12.361,9.915 3.235,0 6.572,-0.412 9.441,-1.131 l -0.73,-5.6 C 18.255,3.699 14.968,4.058 12.569,4.058 8.032,4.058 6.571,2.517 6.571,-1.13 l 0,-13.152 c 0,-3.647 1.461,-5.189 5.998,-5.189 2.399,0 5.686,0.361 8.503,0.874 l 0.73,-5.599 c -2.869,-0.72 -6.206,-1.131 -9.441,-1.131 C 3.703,-25.327 0,-21.679 0,-15.412 L 0,0 z"
         style="fill:#4c565c;fill-opacity:1;fill-rule:nonzero;stroke:none"
         id="path30" />
    </g>
    <g
       id="g32"
       transform="matrix(1.25,0,0,-1.25,426.45585,53.003432)">
      <path
         inkscape:connector-curvature="0"
         d="m 0,0 0,-25.942 -6.416,0 0,34.212 8.763,0 13.195,-25.993 0,25.993 6.416,0 0,-34.212 -8.763,0 L 0,0 z"
         style="fill:#4c565c;fill-opacity:1;fill-rule:nonzero;stroke:none"
         id="path34" />
    </g>
    <path
       inkscape:connector-curvature="0"
       d="m 471.24373,85.431932 -8.215,0 0,-42.765 8.215,0 0,42.765 z"
       style="fill:#4c565c;fill-opacity:1;fill-rule:nonzero;stroke:none"
       id="path36" />
    <g
       id="g38"
       transform="matrix(1.25,0,0,-1.25,479.3941,54.415182)">
      <path
         inkscape:connector-curvature="0"
         d="m 0,0 c 0,6.268 3.702,9.915 12.361,9.915 3.234,0 6.572,-0.412 9.44,-1.131 L 21.07,3.184 C 18.254,3.699 14.969,4.058 12.568,4.058 8.032,4.058 6.57,2.517 6.57,-1.13 l 0,-13.152 c 0,-3.647 1.462,-5.189 5.998,-5.189 2.401,0 5.686,0.361 8.502,0.874 l 0.731,-5.599 c -2.868,-0.72 -6.206,-1.131 -9.44,-1.131 C 3.702,-25.327 0,-21.679 0,-15.412 L 0,0 z"
         style="fill:#4c565c;fill-opacity:1;fill-rule:nonzero;stroke:none"
         id="path40" />
    </g>
    <g
       id="g42"
       transform="matrix(1.25,0,0,-1.25,519.74935,72.460182)">
      <path
         inkscape:connector-curvature="0"
         d="m 0,0 c 0,-3.237 1.669,-5.188 6.571,-5.188 4.904,0 6.573,1.951 6.573,5.188 l 0,13.459 c 0,3.237 -1.669,5.189 -6.573,5.189 C 1.669,18.648 0,16.696 0,13.459 L 0,0 z m 19.716,-0.359 c 0,-5.703 -3.338,-10.532 -13.145,-10.532 -9.804,0 -13.143,4.829 -13.143,10.532 l 0,14.178 c 0,5.702 3.339,10.532 13.143,10.532 9.807,0 13.145,-4.83 13.145,-10.532 l 0,-14.178 z"
         style="fill:#4c565c;fill-opacity:1;fill-rule:nonzero;stroke:none"
         id="path44" />
    </g>
    <g
       id="g46"
       transform="matrix(1.25,0,0,-1.25,329.00047,136.01856)">
      <path
         inkscape:connector-curvature="0"
         d="m 0,0 15.647,0 0,-2.722 -18.724,0 0,34.214 3.077,0 L 0,0 z"
         style="fill:#4c565c;fill-opacity:1;fill-rule:nonzero;stroke:none"
         id="path48" />
    </g>
    <path
       inkscape:connector-curvature="0"
       d="m 361.14122,139.42068 -3.845,0 0,-42.766248 3.845,0 0,42.766248 z"
       style="fill:#4c565c;fill-opacity:1;fill-rule:nonzero;stroke:none"
       id="path50" />
    <g
       id="g52"
       transform="matrix(1.25,0,0,-1.25,384.09022,140.06281)">
      <path
         inkscape:connector-curvature="0"
         d="m 0,0 c -3.024,0 -6.832,0.514 -9.806,1.643 l 0.574,2.466 c 3.129,-0.924 6.311,-1.385 9.336,-1.385 5.946,0 7.564,1.745 7.564,6.112 0,5.291 -0.053,5.855 -7.772,7.602 -8.397,1.901 -9.336,3.391 -9.336,10.274 0,5.601 2.086,8.527 10.796,8.527 3.025,0 6.624,-0.512 8.972,-1.18 L 9.962,31.49 c -2.556,0.565 -5.79,1.028 -8.502,1.028 -6.885,0 -7.823,-1.644 -7.823,-5.908 0,-5.547 0.156,-5.805 7.458,-7.602 9.129,-2.261 9.649,-3.545 9.649,-10.019 C 10.744,3.392 8.814,0 0,0"
         style="fill:#4c565c;fill-opacity:1;fill-rule:nonzero;stroke:none"
         id="path54" />
    </g>
    <g
       id="g56"
       transform="matrix(1.25,0,0,-1.25,431.0311,125.23006)">
      <path
         inkscape:connector-curvature="0"
         d="m 0,0 c 0,2.877 -1.721,4.829 -5.737,4.829 l -9.701,0 0,-13.511 10.587,0 C -1.564,-8.682 0,-7.089 0,-4.366 L 0,0 z m -1.096,16.542 c 0,2.364 -1.356,3.647 -4.329,3.647 l -10.013,0 0,-12.688 8.97,0 c 3.808,0 5.372,1.951 5.372,4.675 l 0,4.366 z m -17.421,-27.895 0,34.214 13.04,0 c 4.695,0 7.459,-2.21 7.459,-6.73 l 0,-4.11 c 0,-2.723 -1.148,-4.52 -3.963,-5.548 2.712,-0.36 5.057,-2.57 5.057,-6.369 l 0,-4.47 c 0,-4.727 -3.493,-6.987 -7.978,-6.987 l -13.615,0 z"
         style="fill:#4c565c;fill-opacity:1;fill-rule:nonzero;stroke:none"
         id="path58" />
    </g>
    <g
       id="g60"
       transform="matrix(1.25,0,0,-1.25,469.49548,127.21981)">
      <path
         inkscape:connector-curvature="0"
         d="m 0,0 0,14.691 c 0,4.882 -2.398,7.552 -9.075,7.552 -6.677,0 -9.076,-2.67 -9.076,-7.552 l 0,-14.691 c 0,-4.881 2.399,-7.551 9.076,-7.551 C -2.398,-7.551 0,-4.881 0,0 m -9.075,-10.274 c -8.919,0 -12.154,4.316 -12.154,10.17 l 0,14.898 c 0,5.856 3.235,10.171 12.154,10.171 8.919,0 12.152,-4.315 12.152,-10.171 l 0,-14.898 c 0,-5.854 -3.233,-10.17 -12.152,-10.17"
         style="fill:#4c565c;fill-opacity:1;fill-rule:nonzero;stroke:none"
         id="path62" />
    </g>
    <g
       id="g64"
       transform="matrix(1.25,0,0,-1.25,488.46885,124.90893)">
      <path
         inkscape:connector-curvature="0"
         d="M 0,0 14.292,0 7.145,20.856 0,0 z m 15.229,-2.619 -16.167,0 -3.235,-8.99 -3.026,0 12.101,34.213 4.538,0 12.1,-34.213 -3.024,0 -3.287,8.99 z"
         style="fill:#4c565c;fill-opacity:1;fill-rule:nonzero;stroke:none"
         id="path66" />
    </g>
    <g
       id="g68"
       transform="matrix(1.25,0,0,-1.25,257.31959,75.270932)">
      <path
         inkscape:connector-curvature="0"
         d="m 0,0 -4.051,0 0,-30.444 -8.762,0 -0.002,30.444 -4.039,0 0,6.104 L 0,6.104 0,0 z m -21.586,15.796 -0.004,-55.95 c 0,-7.249 -5.875,-11.007 -13.123,-11.007 -7.246,0 -13.173,3.168 -13.173,9.328 l 0.008,0 c 0,2.416 1.961,4.375 4.375,4.375 2.416,0 4.377,-1.959 4.377,-4.375 l 10e-4,0 c 0,-4.474 0.357,-7.506 4.412,-7.506 4.362,0 4.362,3.045 4.362,9.185 l 0.002,55.95 c 0,7.249 5.875,11.006 13.123,11.006 7.248,0 13.175,-3.166 13.175,-9.326 l -0.01,0 c 0,-2.418 -1.957,-4.374 -4.376,-4.374 -2.414,0 -4.372,1.956 -4.372,4.374 l -0.004,0 c 0,4.469 -0.356,7.504 -4.413,7.504 -4.361,0 -4.36,-3.044 -4.36,-9.184 m -26.286,-9.692 8.738,0 0.011,-36.527 -8.759,0 0.01,36.527 z m -26.642,31.035 0,-49.364 c 0,-44.45 48.535,-68.26 48.535,-68.26 0,0 48.717,23.81 48.717,68.26 l 0,49.364 -97.252,0 z"
         style="fill:#4c565c;fill-opacity:1;fill-rule:evenodd;stroke:none"
         id="path70" />
    </g>
  </g>
</svg>
