<?xml version="1.0" standalone="no"?>
<!DOCTYPE svg PUBLIC "-//W3C//DTD SVG 20010904//EN"
 "http://www.w3.org/TR/2001/REC-SVG-20010904/DTD/svg10.dtd">
<svg version="1.0" xmlns="http://www.w3.org/2000/svg"
 width="3100.000000pt" height="2100.000000pt" viewBox="0 0 3100.000000 2100.000000"
 preserveAspectRatio="xMidYMid meet">
<metadata>
Created by potrace 1.12, written by Peter Selinger 2001-2015
</metadata>
<g transform="translate(0.000000,2100.000000) scale(0.100000,-0.100000)"
fill="#000000" stroke="none">
<path d="M12810 20901 c0 -15 -18 -383 -40 -817 -22 -434 -39 -794 -38 -801 2
-8 78 19 218 76 844 343 1606 752 2280 1224 132 92 460 337 460 343 0 2 -648
4 -1440 4 l-1440 0 0 -29z"/>
<path d="M18180 20829 c-992 -871 -2199 -1737 -3375 -2421 -583 -339 -1320
-724 -1911 -998 l-201 -93 -7 -106 c-92 -1526 -136 -3099 -136 -4906 0 -954
14 -2212 26 -2224 2 -2 324 -93 715 -201 l712 -197 76 22 c874 263 1532 483
2201 737 2189 831 4099 1865 5754 3117 142 108 264 201 270 206 10 8 26 785
69 3440 31 1887 59 3496 62 3578 l5 147 -2072 0 -2073 0 -115 -101z"/>
<path d="M22940 20747 c-1 -100 -11 -1624 -24 -3387 -13 -1763 -23 -3206 -21
-3208 2 -2 3087 2906 3161 2981 l42 42 -19 1869 c-10 1028 -20 1870 -21 1871
-2 1 -704 5 -1560 8 l-1558 6 0 -182z"/>
<path d="M32 20268 l3 -652 228 -108 c2346 -1112 4784 -1574 7387 -1402 129 8
278 19 330 24 52 5 107 10 123 10 l27 0 0 1390 0 1390 -4050 0 -4050 0 2 -652z"/>
<path d="M8650 19544 l0 -1377 83 6 c45 3 178 12 295 18 116 7 212 16 212 21
0 13 409 2658 415 2686 l5 22 -505 0 -505 0 0 -1376z"/>
<path d="M10226 20888 c-79 -440 -436 -2433 -436 -2438 0 -4 10 -6 23 -4 941
147 1529 298 2197 566 96 39 179 74 183 78 6 5 126 1717 127 1813 0 16 -56 17
-1044 17 l-1044 0 -6 -32z"/>
<path d="M16320 20839 c-1014 -864 -2148 -1551 -3363 -2039 -120 -48 -220 -90
-223 -93 -6 -5 -44 -770 -39 -775 2 -2 94 37 206 86 1618 708 3152 1653 4512
2780 75 62 137 115 137 118 0 2 -255 4 -567 4 l-568 0 -95 -81z"/>
<path d="M26640 19338 c0 -1007 3 -1579 10 -1572 5 5 441 572 969 1259 l960
1250 1 323 0 322 -970 0 -970 0 0 -1582z"/>
<path d="M29307 20517 l-246 -403 124 -6704 c69 -3688 125 -6742 125 -6787 l0
-83 825 0 825 0 0 7190 0 7190 -703 0 -704 0 -246 -403z"/>
<path d="M27607 18206 l-967 -1231 2 -5045 3 -5045 720 -177 720 -177 356 -1
357 0 -5 208 c-2 114 -51 3017 -108 6451 -57 3434 -106 6245 -107 6246 -2 1
-438 -552 -971 -1229z"/>
<path d="M32 18208 l3 -822 100 -38 c641 -244 1467 -490 2192 -652 1851 -416
3813 -503 5741 -255 l92 12 0 589 0 590 -37 -6 c-192 -31 -866 -76 -1284 -85
-1095 -23 -2092 62 -3149 270 -1157 228 -2384 630 -3498 1148 -84 39 -154 71
-157 71 -3 0 -4 -370 -3 -822z"/>
<path d="M12150 18534 c-78 -34 -437 -166 -620 -229 -471 -160 -1000 -303
-1483 -400 -151 -30 -284 -55 -295 -55 -14 0 -22 -8 -26 -27 -9 -45 -166
-1127 -163 -1129 3 -3 2599 982 2613 992 15 11 32 864 18 864 -5 -1 -25 -8
-44 -16z"/>
<path d="M8915 17719 c-132 -15 -246 -28 -252 -28 -10 -1 -13 -122 -13 -571 0
-536 1 -570 18 -570 29 0 337 22 340 25 1 1 40 251 87 556 46 305 87 569 90
587 5 26 3 32 -12 31 -10 -1 -126 -14 -258 -30z"/>
<path d="M10820 16635 c-723 -255 -1319 -465 -1323 -467 -10 -4 -501 -5232
-494 -5251 4 -12 3053 -744 3062 -736 3 4 85 6537 85 6807 0 61 -3 112 -7 111
-5 -1 -600 -210 -1323 -464z"/>
<path d="M30 14897 l0 -1973 3608 -824 c1984 -453 3818 -871 4076 -930 l469
-107 -6 981 c-4 539 -10 1630 -14 2424 l-6 1443 -41 -6 c-23 -3 -115 -10 -206
-15 -91 -6 -270 -20 -398 -31 -784 -66 -1838 -82 -2619 -39 -1740 95 -3284
417 -4667 974 -103 42 -189 76 -192 76 -2 0 -4 -888 -4 -1973z"/>
<path d="M25905 16194 c-846 -921 -1876 -1857 -2836 -2578 -101 -77 -190 -145
-198 -152 -12 -11 -16 -423 -27 -2861 -6 -1566 -11 -2849 -10 -2850 4 -4 3280
-732 3283 -729 2 1 2 2117 1 4701 l-3 4697 -210 -228z"/>
<path d="M8793 16022 l-153 -35 1 -1351 1 -1351 19 190 c107 1060 176 1690
249 2270 21 170 38 310 37 311 -1 1 -71 -15 -154 -34z"/>
<path d="M22120 12954 c-752 -546 -1642 -1107 -2530 -1594 -279 -153 -1013
-523 -1295 -652 -1038 -476 -2067 -859 -3078 -1144 -178 -50 -204 -60 -178
-66 31 -9 7206 -1635 7254 -1645 l27 -5 0 2621 c0 1441 -3 2621 -7 2620 -5 -1
-91 -61 -193 -135z"/>
<path d="M30 12191 l0 -179 63 -21 c235 -76 8067 -2581 8071 -2581 3 0 6 251
6 558 l0 557 -4062 923 c-2235 507 -4066 922 -4070 922 -5 0 -8 -81 -8 -179z"/>
<path d="M32 11039 l3 -494 170 -63 c246 -90 807 -279 1072 -361 1792 -550
3760 -882 5758 -971 127 -5 275 -12 330 -14 67 -3 93 -2 80 5 -19 9 -7348
2374 -7393 2385 l-22 6 2 -493z"/>
<path d="M9020 9731 l0 -609 78 -6 c42 -4 181 -11 307 -16 852 -35 1802 38
2623 201 l52 10 0 188 0 187 -1517 327 c-835 180 -1524 327 -1530 327 -10 0
-13 -128 -13 -609z"/>
<path d="M30 8281 l0 -1741 4070 0 4070 0 -2 1032 -3 1033 -275 17 c-2746 171
-5069 520 -6735 1012 -354 105 -847 274 -1107 381 -17 7 -18 -80 -18 -1734z"/>
<path d="M12560 9484 l0 -77 63 6 c34 4 128 12 210 18 81 7 146 13 145 14 -5
5 -397 115 -408 115 -6 0 -10 -31 -10 -76z"/>
<path d="M13271 9050 c-387 -98 -705 -181 -707 -183 -3 -2 -1 -200 2 -440 l7
-436 46 -15 c25 -8 1050 -335 2278 -726 l2232 -710 2596 0 2595 0 0 384 0 384
-42 10 c-96 24 -8255 1904 -8278 1907 -14 2 -342 -76 -729 -175z"/>
<path d="M11315 8691 c-379 -48 -681 -90 -670 -94 99 -32 1426 -447 1430 -447
3 0 5 142 5 315 l0 315 -37 -1 c-21 -1 -348 -40 -728 -88z"/>
<path d="M9063 8109 l6 -424 143 -572 143 -573 1357 0 1358 0 0 493 0 493
-1492 499 c-821 274 -1499 501 -1507 503 -12 5 -13 -56 -8 -419z"/>
<path d="M12570 6970 l0 -430 1483 1 1482 0 -1470 429 c-808 237 -1476 430
-1482 430 -10 0 -13 -93 -13 -430z"/>
<path d="M22830 6875 l0 -335 1528 1 c840 1 1511 5 1492 9 -95 23 -3002 660
-3010 660 -6 0 -10 -127 -10 -335z"/>
<path d="M8680 6852 l0 -312 100 0 c75 0 98 3 95 13 -3 6 -45 144 -95 306 -50
162 -93 297 -95 300 -3 2 -5 -136 -5 -307z"/>
<path d="M26098 5303 l-1718 -3 0 -2610 0 -2610 1330 0 1330 0 0 665 0 665
788 0 c1029 0 1252 12 1619 85 399 80 716 226 930 429 327 309 539 760 584
1244 15 155 6 464 -16 587 -74 415 -269 811 -503 1025 -109 100 -288 222 -417
286 -193 94 -449 166 -705 198 -343 43 -483 44 -3222 39z m1817 -1488 c155
-33 288 -126 340 -237 23 -49 25 -65 25 -205 0 -130 -3 -160 -21 -208 -39
-103 -161 -196 -297 -224 -34 -7 -208 -11 -482 -11 l-430 0 0 450 0 450 398 0
c311 0 412 -4 467 -15z"/>
<path d="M30 2680 l0 -2610 2450 0 2450 0 0 1065 0 1065 -592 0 c-326 0 -799
3 -1050 7 l-458 6 0 1539 0 1538 -1400 0 -1400 0 0 -2610z"/>
<path d="M13380 2680 l0 -2610 1380 0 1380 0 0 2610 0 2610 -1380 0 -1380 0 0
-2610z"/>
</g>
</svg>
