<?xml version="1.0" encoding="UTF-8" standalone="no"?>
<!-- Created with Inkscape (http://www.inkscape.org/) -->

<svg
   xmlns:dc="http://purl.org/dc/elements/1.1/"
   xmlns:cc="http://creativecommons.org/ns#"
   xmlns:rdf="http://www.w3.org/1999/02/22-rdf-syntax-ns#"
   xmlns:svg="http://www.w3.org/2000/svg"
   xmlns="http://www.w3.org/2000/svg"
   xmlns:sodipodi="http://sodipodi.sourceforge.net/DTD/sodipodi-0.dtd"
   xmlns:inkscape="http://www.inkscape.org/namespaces/inkscape"
   width="301.18109"
   height="194.8819"
   id="svg2"
   version="1.1"
   inkscape:version="0.48.4 r9939"
   sodipodi:docname="drawing.svg">
  <defs
     id="defs4">
    <inkscape:perspective
       sodipodi:type="inkscape:persp3d"
       inkscape:vp_x="82.00807 : 725.11334 : 1"
       inkscape:vp_y="0 : 411.19378 : 0"
       inkscape:vp_z="447.68689 : 725.11334 : 1"
       inkscape:persp3d-origin="264.84748 : 652.99255 : 1"
       id="perspective2985" />
    <inkscape:perspective
       sodipodi:type="inkscape:persp3d"
       inkscape:vp_x="1.5520202 : 638.77194 : 1"
       inkscape:vp_y="0 : 584.20124 : 0"
       inkscape:vp_z="745.6465 : 638.77194 : 1"
       inkscape:persp3d-origin="373.59926 : 536.30672 : 1"
       id="perspective2985-9" />
    <inkscape:perspective
       sodipodi:type="inkscape:persp3d"
       inkscape:vp_x="-467.27622 : 462.42014 : 1"
       inkscape:vp_y="0 : 698.99384 : 0"
       inkscape:vp_z="879.47409 : 462.42014 : 1"
       inkscape:persp3d-origin="206.09896 : 339.82102 : 1"
       id="perspective2985-2" />
    <inkscape:perspective
       sodipodi:type="inkscape:persp3d"
       inkscape:vp_x="86.556497 : 701.77999 : 1"
       inkscape:vp_y="0 : 411.19378 : 0"
       inkscape:vp_z="452.23532 : 701.77999 : 1"
       inkscape:persp3d-origin="269.39591 : 629.6592 : 1"
       id="perspective2985-6" />
    <inkscape:perspective
       sodipodi:type="inkscape:persp3d"
       inkscape:vp_x="137.44935 : 701.95856 : 1"
       inkscape:vp_y="0 : 411.19378 : 0"
       inkscape:vp_z="503.12818 : 701.95856 : 1"
       inkscape:persp3d-origin="320.28877 : 629.83777 : 1"
       id="perspective2985-5" />
    <inkscape:perspective
       sodipodi:type="inkscape:persp3d"
       inkscape:vp_x="102.27078 : 718.38713 : 1"
       inkscape:vp_y="0 : 411.19378 : 0"
       inkscape:vp_z="467.94961 : 718.38713 : 1"
       inkscape:persp3d-origin="285.1102 : 646.26634 : 1"
       id="perspective2985-8" />
    <inkscape:perspective
       sodipodi:type="inkscape:persp3d"
       inkscape:vp_x="121.84525 : 720.25578 : 1"
       inkscape:vp_y="0 : 411.19378 : 0"
       inkscape:vp_z="487.52408 : 720.25578 : 1"
       inkscape:persp3d-origin="304.68467 : 648.13499 : 1"
       id="perspective2985-0" />
    <inkscape:perspective
       sodipodi:type="inkscape:persp3d"
       inkscape:vp_x="94.265295 : 697.82909 : 1"
       inkscape:vp_y="0 : 411.19378 : 0"
       inkscape:vp_z="459.94412 : 697.82909 : 1"
       inkscape:persp3d-origin="277.10471 : 625.7083 : 1"
       id="perspective2985-6-4" />
    <inkscape:perspective
       sodipodi:type="inkscape:persp3d"
       inkscape:vp_x="81.205699 : 720.86159 : 1"
       inkscape:vp_y="0 : 411.19378 : 0"
       inkscape:vp_z="446.88452 : 720.86159 : 1"
       inkscape:persp3d-origin="264.04511 : 648.7408 : 1"
       id="perspective2985-1" />
    <inkscape:perspective
       sodipodi:type="inkscape:persp3d"
       inkscape:vp_x="78.169985 : 716.75445 : 1"
       inkscape:vp_y="0 : 411.19378 : 0"
       inkscape:vp_z="443.8488 : 716.75445 : 1"
       inkscape:persp3d-origin="261.00939 : 644.63366 : 1"
       id="perspective2985-4" />
  </defs>
  <sodipodi:namedview
     id="base"
     pagecolor="#ffffff"
     bordercolor="#666666"
     borderopacity="1.0"
     inkscape:pageopacity="0.0"
     inkscape:pageshadow="2"
     inkscape:zoom="1.1730692"
     inkscape:cx="179.1335"
     inkscape:cy="139.59157"
     inkscape:document-units="px"
     inkscape:current-layer="layer1"
     showgrid="false"
     inkscape:window-width="1855"
     inkscape:window-height="1056"
     inkscape:window-x="1985"
     inkscape:window-y="24"
     inkscape:window-maximized="1" />
  <metadata
     id="metadata7">
    <rdf:RDF>
      <cc:Work
         rdf:about="">
        <dc:format>image/svg+xml</dc:format>
        <dc:type
           rdf:resource="http://purl.org/dc/dcmitype/StillImage" />
        <dc:title></dc:title>
      </cc:Work>
    </rdf:RDF>
  </metadata>
  <g
     inkscape:groupmode="layer"
     id="layer2"
     inkscape:label="Layer"
     transform="translate(0,-857.48023)" />
  <g
     inkscape:label="Layer 1"
     inkscape:groupmode="layer"
     id="layer1"
     transform="translate(0,-857.48023)">
    <path
       style="fill:#ff8080"
       d="m 135.67535,953.80184 c -2.68459,-2.73024 -17.17197,-17.41496 -32.1942,-32.62997 l -27.313161,-27.664 0,-4.8473 0,-4.8473 0.913329,0.92411 c 0.502371,0.50405 15.00687,15.61815 32.232242,33.5783 l 31.31889,32.65319 0,3.89992 c 0,2.14403 -0.0167,3.89976 -0.0373,3.89976 -0.0224,0 -2.23452,-2.23455 -4.91909,-4.96486 z"
       id="path3171"
       inkscape:connector-curvature="0" />
    <path
       style="fill:#aa0000"
       d="m 17.277852,966.82129 -4.187635,-2.82546 31.423477,-35.02227 c 17.282902,-19.26322 31.519608,-35.00458 31.637086,-34.98311 0.117533,0 12.130263,12.11499 26.69505,26.87445 14.5648,14.75928 28.97151,29.34699 32.01489,32.41702 l 5.5334,5.58188 -4.25498,3.15499 c -2.34023,1.73526 -4.4012,3.15506 -4.57989,3.15221 -0.17858,0 -4.57964,-2.78446 -9.77983,-6.18493 -5.20017,-3.39954 -9.45701,-6.08411 -9.45957,-5.9674 -0.002,0.12135 -0.10663,0 -0.23065,-0.1307 -0.25174,-0.38266 -12.829711,-8.68644 -13.583984,-8.96281 -0.263041,-0.12127 -0.547463,-0.27065 -0.632112,-0.37331 -0.336789,-0.44801 -5.842375,-3.99331 -5.846751,-3.77107 -0.0023,0.13069 -0.106622,0.12134 -0.230623,-0.12136 -0.251708,-0.38265 -12.829725,-8.68744 -13.583986,-8.96365 -0.263076,-0.12144 -0.550533,-0.28009 -0.638887,-0.41078 -0.08786,-0.13062 -12.597807,8.68095 -27.798878,19.57861 -15.201098,10.89697 -27.789159,19.80379 -27.973483,19.79352 -0.184425,0 -2.219583,-1.29012 -4.522791,-2.84425 l 0,0 z"
       id="path3173"
       inkscape:connector-curvature="0" />
    <path
       style="fill:#550000"
       d="m 13.009908,959.84293 0,-3.66835 1.306773,-1.49626 c 0.718723,-0.82141 1.860219,-2.15153 2.536675,-2.95146 0.676432,-0.79344 1.575803,-1.84263 1.998591,-2.31497 0.422781,-0.47606 1.126025,-1.25822 1.562772,-1.74638 1.304733,-1.45904 5.572978,-6.3707 6.892806,-7.93147 0.676462,-0.79329 1.575833,-1.84062 1.998592,-2.31296 0.422766,-0.48539 1.126032,-1.25921 1.562779,-1.74739 1.304719,-1.45897 5.572979,-6.36968 6.892815,-7.93131 0.676446,-0.79343 1.575794,-1.84078 1.998583,-2.31312 0.422758,-0.46662 1.126033,-1.25921 1.562772,-1.7473 1.304727,-1.45898 5.572987,-6.36975 6.892814,-7.93041 0.676424,-0.79342 1.575826,-1.84269 1.998592,-2.31307 0.422759,-0.48543 1.126024,-1.26019 1.562771,-1.74737 1.304727,-1.4599 5.57298,-6.37162 6.892807,-7.93137 0.676432,-0.79342 1.575803,-1.83418 1.998592,-2.2953 0.422789,-0.46673 1.391336,-1.57657 2.152338,-2.47266 0.760991,-0.90543 1.608664,-1.85753 1.883732,-2.13476 0.445275,-0.45739 2.773679,-3.12885 6.534698,-7.51877 0.696892,-0.81208 1.615563,-1.85193 2.041526,-2.30651 0.425963,-0.45738 0.979417,-1.10144 1.229909,-1.44214 0.250549,-0.33604 0.697597,-0.81208 0.993488,-1.04359 0.507293,-0.40136 0.538097,-0.15867 0.538097,4.19764 l 0,4.61954 -3.241517,3.64317 c -1.782851,2.00409 -3.704185,4.12764 -4.269653,4.71944 -0.565445,0.59738 -2.99123,3.29033 -5.39061,5.99634 -4.039964,4.55604 -5.562646,6.25401 -8.134187,9.07018 -0.540393,0.59733 -1.718378,1.90607 -2.617772,2.92066 -2.510272,2.83295 -4.294493,4.81277 -5.400063,5.99636 -0.553261,0.59732 -7.138754,7.92568 -14.634458,16.29579 -7.495696,8.37198 -14.914564,16.6328 -16.486396,18.36051 l -2.857858,3.13922 0,-3.66834 z"
       id="path3175"
       inkscape:connector-curvature="0" />
    <path
       style="fill:#550000"
       d="m 14.357574,977.82826 c 0,-1.52702 0.136819,-2.26724 0.483192,-2.61351 0.265732,-0.27066 0.577052,-0.49483 0.691812,-0.49483 0.114721,0 0.610674,-0.35462 1.102025,-0.77466 0.491366,-0.42005 0.984145,-0.77474 1.095066,-0.77474 0.11085,0 0.472039,-0.23343 0.802446,-0.54141 0.330407,-0.28934 1.601803,-1.21812 2.825255,-2.04893 1.223481,-0.83069 2.224488,-1.62699 2.224488,-1.76788 0,-0.14004 0.152925,-0.26138 0.339737,-0.26138 0.379703,0 10.996199,-7.54402 11.531979,-8.19456 0.187778,-0.23335 0.478884,-0.4107 0.646918,-0.4107 0.168065,0 0.678796,-0.33601 1.134985,-0.76539 0.45619,-0.42012 0.940449,-0.77475 1.076165,-0.77475 0.135607,0 0.619974,-0.336 1.076171,-0.77474 0.456189,-0.42006 0.940448,-0.77483 1.076165,-0.77483 0.135607,0 0.619975,-0.33602 1.076164,-0.77468 0.45619,-0.42003 0.900135,-0.77474 0.986555,-0.77474 0.08636,0 6.686181,-4.68123 14.66612,-10.40409 13.425233,-9.62548 18.845033,-13.45812 19.812957,-14.01156 0.295301,-0.17751 0.38436,0.41997 0.38436,2.56316 l 0,2.78345 -2.306069,1.60271 c -1.268351,0.8774 -2.306068,1.71278 -2.306068,1.8482 0,0.14003 -0.14835,0.24261 -0.329514,0.24261 -0.44964,0 -6.742451,4.3582 -6.742451,4.67003 0,0.13997 -0.148111,0.26131 -0.329014,0.26131 -0.340314,0 -6.044371,3.83457 -6.589188,4.43004 -0.169032,0.1867 -0.699852,0.54148 -1.179455,0.7841 -0.479585,0.24269 -1.213122,0.77483 -1.630096,1.14814 -0.416949,0.39208 -0.829897,0.70005 -0.917661,0.70005 -0.272182,0 -9.166661,6.21011 -9.528142,6.65348 -0.187787,0.23335 -0.439784,0.42012 -0.560074,0.42012 -0.373934,0 -6.631672,4.40672 -6.631672,4.6708 0,0.14004 -0.148105,0.2427 -0.329039,0.2427 -0.340316,0 -6.044377,3.83542 -6.589194,4.43104 -0.169032,0.18669 -0.699853,0.5414 -1.179431,0.78401 -0.479609,0.24271 -1.213148,0.76541 -1.63009,1.14907 -0.41698,0.38275 -0.824212,0.70006 -0.905,0.70006 -0.320667,0 -6.585889,4.44788 -6.585889,4.67651 0,0.1307 -0.153157,0.24271 -0.340395,0.24271 -0.187305,0 -1.630304,0.90544 -3.206919,1.99842 -1.576621,1.10242 -2.945482,1.99852 -3.041873,1.99852 -0.09648,0 -0.175273,-0.96045 -0.175273,-2.13006 z"
       id="path3177"
       inkscape:connector-curvature="0" />
    <path
       style="fill:#550000"
       d="m 15.291789,999.08257 0.01189,-1.44495 3.27161,-1.53552 c 1.799351,-0.84009 4.457574,-2.10587 5.907123,-2.80037 4.363742,-2.08802 7.8943,-3.75986 21.084107,-9.98482 6.933567,-3.27178 12.691165,-6.07014 12.7946,-6.21674 0.103359,-0.14932 0.287352,-0.23328 0.408608,-0.19596 0.276699,0.11196 5.178139,-2.23836 5.433439,-2.58649 0.103325,-0.14005 0.287332,-0.22407 0.408605,-0.18669 0.288867,0.12127 5.214468,-2.26084 5.348461,-2.5623 0.05626,-0.13063 0.229679,-0.14932 0.38436,0 0.154567,0.12142 0.281239,0 0.281239,-0.14932 0,-0.17743 0.116023,-0.28943 0.257222,-0.24277 0.324126,0.12142 4.779798,-1.99373 4.919202,-2.3074 0.05626,-0.13061 0.229554,-0.14932 0.38436,0 0.154566,0.12142 0.281239,0 0.281239,-0.12135 0,-0.14932 0.172845,-0.28 0.38436,-0.28936 0.211402,-0.0102 0.626463,-0.12135 0.922343,-0.23343 0.477057,-0.19597 0.538109,0 0.538109,1.59623 l 0,1.81745 -2.229218,1.05468 c -1.226032,0.58805 -2.313831,1.17424 -2.417292,1.31529 -0.103098,0.13997 -0.253118,0.21465 -0.33246,0.14931 -0.190179,-0.14005 -3.422285,1.3526 -3.664717,1.6876 -0.103098,0.14005 -0.285571,0.23343 -0.404753,0.18669 -0.296812,-0.12134 -10.737073,4.68494 -10.971791,5.02566 -0.10336,0.14932 -0.311011,0.24262 -0.461209,0.22402 -0.360564,0 -3.294761,1.29366 -3.535967,1.62596 -0.103371,0.14004 -0.311012,0.23342 -0.46121,0.224 -0.360571,0 -3.294759,1.29382 -3.535974,1.62698 -0.103359,0.14003 -0.311012,0.23343 -0.461202,0.22407 -0.36057,0 -3.294737,1.29375 -3.535975,1.6279 -0.103359,0.14004 -0.284964,0.23343 -0.403355,0.19605 -0.294373,-0.12136 -6.741332,2.84787 -6.976058,3.18203 -0.103348,0.14932 -0.285922,0.23343 -0.40548,0.19596 -0.291499,-0.12127 -7.34979,3.15322 -7.588881,3.49293 -0.10337,0.14938 -0.253078,0.22409 -0.332445,0.16808 -0.206541,-0.14931 -3.432408,1.36751 -3.702556,1.73897 -0.124299,0.17736 -0.227929,0.224 -0.230578,0.12135 -0.0023,-0.12135 -2.114773,0.7654 -4.693716,1.94622 -2.578964,1.18455 -5.138703,2.34284 -5.688309,2.57427 l -0.999284,0.4201 0.01189,-1.44583 0,0 z"
       id="path3179"
       inkscape:connector-curvature="0" />
    <path
       style="fill:#d40000"
       d="m 24.256698,984.60031 c -5.124969,-2.17023 -9.345068,-4.02398 -9.378005,-4.11821 -0.05538,-0.16809 4.358928,-3.28569 19.618552,-13.89417 3.213129,-2.23455 10.961501,-7.62982 17.218637,-11.98894 6.257136,-4.36098 13.382886,-9.31937 15.834996,-11.02094 2.452109,-1.70268 5.686477,-3.96436 7.187452,-5.02753 l 2.729053,-1.93223 0.883798,0.6347 c 0.486072,0.35479 0.885902,0.51351 0.888482,0.37347 0.0023,-0.14003 0.106621,-0.12142 0.230611,0.12128 0.276556,0.42012 5.606728,3.86446 5.606728,3.62918 0,-0.12135 0.186565,0 0.414596,0.2427 0.595534,0.59739 23.496912,15.05906 23.749862,14.99926 0.11602,0 0.29581,0.11197 0.39922,0.23336 0.28058,0.42939 8.95041,5.92167 8.9559,5.66777 0.002,-0.12134 0.10662,-0.12134 0.23065,0.1307 0.30569,0.46679 14.82973,9.67314 14.83566,9.39962 0.002,-0.12128 0.10662,-0.12128 0.23065,0.12143 0.39933,0.57863 3.06196,2.26825 3.26154,2.06756 0.10663,-0.12142 0.19275,0 0.19275,0.13062 0,0.17734 0.97286,0.91472 2.16196,1.62983 l 2.16191,1.30679 -8.54206,3.97446 c -4.69812,2.1852 -9.11384,4.22758 -9.81263,4.53741 l -1.27067,0.56009 -7.49242,-3.24082 c -4.12083,-1.78385 -7.66539,-3.24466 -7.87679,-3.24744 -0.21132,0 -0.38438,-0.11196 -0.38438,-0.23334 0,-0.21475 -1.30587,-0.64415 -1.73222,-0.5788 -0.10901,0 -0.28228,-0.12127 -0.38579,-0.24269 -0.18566,-0.27066 -18.563881,-8.2599 -19.423001,-8.44752 -0.243979,0 -0.512681,-0.17736 -0.597285,-0.27067 -0.248196,-0.27073 -5.451456,-2.44272 -5.866347,-2.44272 -0.20847,0 -10.308107,4.7044 -22.443875,10.4553 -12.135741,5.74896 -22.111005,10.44781 -22.167246,10.44223 -0.05624,-0.0102 -4.295434,-1.78748 -9.420404,-3.95676 l 0,0 z"
       id="path3181"
       inkscape:connector-curvature="0" />
    <path
       style="fill:#aa0000"
       d="m 47.200213,1009.6974 c -17.027229,-4.7716 -31.034397,-8.7546 -31.127035,-8.8507 -0.09257,-0.1213 13.882714,-6.64223 31.056342,-14.54751 l 31.224776,-14.37199 11.740072,4.91536 c 6.457018,2.7032 11.947602,4.96031 12.201262,5.01446 0.25371,0 0.53037,0.17727 0.61495,0.27065 0.19115,0.19597 11.97324,5.1301 12.60649,5.26737 0.2537,0 0.53038,0.17726 0.61495,0.27065 0.19116,0.21473 11.97325,5.13196 12.6065,5.26929 0.2537,0 0.53038,0.17736 0.61495,0.26132 0.084,0.12135 2.95448,1.33576 6.37762,2.76762 3.42313,1.43185 6.22501,2.67719 6.22638,2.76573 9.5e-4,0.13997 -61.949008,19.26135 -63.337485,19.55165 -0.253697,0 -14.392569,-3.8065 -31.419796,-8.5782 l 0,0 z"
       id="path3183"
       inkscape:connector-curvature="0" />
    <path
       style="fill:#aa0000"
       d="m 24.768518,984.6013 c -4.674326,-2.00878 -8.720011,-3.77578 -8.990385,-3.92695 -0.645186,-0.36404 -0.306755,-0.60674 21.025177,-15.4706 9.554807,-6.65548 22.597396,-15.74327 28.983506,-20.19487 l 11.611116,-8.09468 1.064735,0.57879 c 0.585566,0.31731 1.863681,1.08928 2.840233,1.7175 5.624393,3.63189 16.100479,10.26389 21.27766,13.47117 3.28526,2.03581 7.81056,4.89033 10.05622,6.3455 5.41046,3.50313 8.79399,5.65289 14.71815,9.35112 2.70579,1.68861 5.89813,3.70665 7.09411,4.48511 1.19598,0.77475 3.15954,2.03674 4.36351,2.79658 1.20392,0.76533 2.19709,1.46739 2.20701,1.56812 0.01,0.12142 -4.24861,2.15244 -9.4634,4.55886 l -9.48148,4.37497 -7.04534,-2.97107 c -3.87496,-1.63632 -7.59882,-3.21655 -8.27528,-3.51533 -3.87469,-1.70999 -15.394933,-6.7104 -19.21723,-8.34108 -7.668328,-3.27069 -8.659248,-3.66835 -9.170315,-3.66835 -0.484319,0 -14.771257,6.58999 -34.616575,15.96628 -5.395947,2.5501 -9.961939,4.63357 -10.146697,4.63072 -0.184657,0 -4.160321,-1.64744 -8.834686,-3.65437 l 0,0 z"
       id="path3185"
       inkscape:connector-curvature="0" />
    <path
       style="fill:#ff8080"
       d="m 139.80766,975.84381 c -2.53658,-1.70352 -4.76507,-3.13351 -14.45136,-9.26429 -4.31234,-2.72938 -10.46954,-6.62644 -13.68266,-8.65948 -3.21313,-2.03481 -11.58414,-7.33483 -18.602272,-11.78071 -7.018132,-4.44502 -13.348294,-8.44196 -14.067023,-8.88263 l -1.306771,-0.79336 0,-2.86377 c 0,-2.20661 0.089,-2.81327 0.38436,-2.64249 0.31933,0.18669 63.536286,41.28651 63.814806,41.48904 0.0495,0 0.0495,1.12482 0,2.40828 l -0.0905,2.341 -1.99858,-1.34317 0,0 z"
       id="path3187"
       inkscape:connector-curvature="0" />
    <path
       style="fill:#ff8080"
       d="m 139.80766,997.43122 c -1.47678,-0.6907 -58.73819,-24.75823 -61.110789,-25.68987 -0.349679,-0.13988 -0.597523,-3.7747 -0.257221,-3.7747 0.141563,0 7.867101,3.31457 39.07601,16.75971 11.6687,5.02839 22.11519,9.52848 23.21442,10.00167 l 1.99858,0.85879 0.0937,1.40944 c 0.1148,1.72881 -0.15055,1.76611 -3.01472,0.4294 z"
       id="path3189"
       inkscape:connector-curvature="0" />
    <flowRoot
       xml:space="preserve"
       id="flowRoot3089"
       style="font-size:40px;font-style:normal;font-weight:normal;line-height:125%;letter-spacing:0px;word-spacing:0px;fill:#000000;fill-opacity:1;stroke:none;font-family:Sans"><flowRegion
         id="flowRegion3091"><rect
           id="rect3093"
           width="226.7556"
           height="193.50948"
           x="383.6091"
           y="183.70071" /></flowRegion><flowPara
         id="flowPara3095"></flowPara></flowRoot>    <text
       xml:space="preserve"
       style="font-size:48.22260666px;font-style:normal;font-variant:normal;font-weight:normal;font-stretch:normal;text-align:start;line-height:100%;letter-spacing:0px;word-spacing:0px;writing-mode:lr-tb;text-anchor:start;fill:#000000;fill-opacity:1;stroke:none;font-family:Padauk Book;-inkscape-font-specification:'Padauk Book,'"
       x="217.03122"
       y="942.03333"
       id="text3097"
       sodipodi:linespacing="100%"><tspan
         sodipodi:role="line"
         id="tspan3099"
         x="223.05904"
         y="942.03333"
         style="font-size:48.22260666px;font-style:normal;font-variant:normal;font-weight:bold;font-stretch:normal;text-align:center;line-height:100%;writing-mode:lr-tb;text-anchor:middle;font-family:Linux Biolinum Keyboard O;-inkscape-font-specification:Linux Biolinum Keyboard O Bold">LAB </tspan><tspan
         sodipodi:role="line"
         x="217.03122"
         y="990.25586"
         style="font-size:48.22260666px;font-style:normal;font-variant:normal;font-weight:bold;font-stretch:normal;text-align:center;line-height:100%;writing-mode:lr-tb;text-anchor:middle;font-family:Linux Biolinum Keyboard O;-inkscape-font-specification:Linux Biolinum Keyboard O Bold"
         id="tspan3109">RC</tspan></text>
    <flowRoot
       xml:space="preserve"
       id="flowRoot3101"
       style="font-size:40px;font-style:normal;font-weight:normal;line-height:125%;letter-spacing:0px;word-spacing:0px;fill:#000000;fill-opacity:1;stroke:none;font-family:Sans"><flowRegion
         id="flowRegion3103"><rect
           id="rect3105"
           width="233.57532"
           height="247.21474"
           x="408.33057"
           y="176.02853" /></flowRegion><flowPara
         id="flowPara3107"></flowPara></flowRoot>  </g>
</svg>
